<svg width="512" height="512" viewBox="0 0 512 512" fill="none" xmlns="http://www.w3.org/2000/svg">
<rect width="512" height="512" fill="#F5F5F5"/>
<rect width="512" height="512" fill="#101223"/>
<path d="M286.305 391.4C255.105 391.4 228.305 385.4 205.905 373.4C183.505 361.4 166.305 344.467 154.305 322.6C142.571 300.733 136.705 275.133 136.705 245.8C136.705 223.933 140.038 204.067 146.705 186.2C153.638 168.333 163.505 153 176.305 140.2C189.371 127.4 205.105 117.667 223.505 111C242.171 104.067 263.105 100.6 286.305 100.6C298.571 100.6 311.238 102.067 324.305 105C337.638 107.667 349.371 111.8 359.505 117.4C366.971 121.4 372.171 126.467 375.105 132.6C378.038 138.733 378.971 145 377.905 151.4C377.105 157.8 374.838 163.533 371.105 168.6C367.371 173.667 362.571 177.133 356.705 179C350.838 180.6 344.438 179.667 337.505 176.2C329.505 172.467 321.505 169.667 313.505 167.8C305.771 165.667 297.638 164.6 289.105 164.6C272.571 164.6 258.705 167.8 247.505 174.2C236.571 180.333 228.305 189.4 222.705 201.4C217.105 213.4 214.305 228.2 214.305 245.8C214.305 263.4 217.105 278.333 222.705 290.6C228.305 302.6 236.571 311.8 247.505 318.2C258.705 324.333 272.571 327.4 289.105 327.4C296.038 327.4 303.505 326.6 311.505 325C319.505 323.133 327.371 320.333 335.105 316.6C343.105 313.133 350.171 312.2 356.305 313.8C362.705 315.4 367.771 318.6 371.505 323.4C375.505 328.2 378.038 333.8 379.105 340.2C380.171 346.333 379.238 352.467 376.305 358.6C373.638 364.733 368.838 369.667 361.905 373.4C352.571 379 340.971 383.4 327.105 386.6C313.505 389.8 299.905 391.4 286.305 391.4Z" fill="white"/>
</svg>
